<svg width="206" height="58" viewBox="0 0 206 58" fill="none" xmlns="http://www.w3.org/2000/svg">
<path d="M18.4692 27.0655C16.4845 27.0655 14.7785 27.8398 13.3494 29.3863C11.9202 30.9287 11.2056 32.785 11.2056 34.953C11.2056 37.1665 11.9202 39.0475 13.3494 40.5941C14.7785 42.1427 16.4845 42.9149 18.4692 42.9149C19.4214 42.9149 20.3244 42.791 21.1784 42.5432C22.0304 42.2913 22.6566 42.0374 23.0551 41.7834L23.597 41.4117L27.1699 49.1176C26.8911 49.3282 26.5044 49.5884 26.0077 49.9022C25.5091 50.216 24.3763 50.6435 22.6075 51.1824C20.8427 51.7275 18.9482 52 16.9223 52C12.4345 52 8.49255 50.3399 5.09631 47.0197C1.69812 43.6995 0 39.7227 0 35.0852C0 30.4063 1.69812 26.3862 5.09631 23.0267C8.49255 19.6632 12.4345 17.9803 16.9223 17.9803C18.9482 17.9803 20.8132 18.2323 22.5212 18.7319C24.2271 19.2337 25.4384 19.7354 26.1569 20.2351L27.1699 20.9867L23.597 28.5687C22.2817 27.5672 20.5737 27.0655 18.4692 27.0655Z" fill="#3C5060"/>
<path d="M35.6427 47.2427C32.2445 44.0671 30.5464 39.9911 30.5464 35.0191C30.5464 30.0471 32.3132 25.9649 35.8469 22.7707C39.3844 19.5785 43.7564 17.9803 48.9606 17.9803C54.0805 17.9803 58.3955 19.5888 61.9095 22.8037C65.4275 26.0207 67.1864 30.0925 67.1864 35.0191C67.1864 39.9478 65.4667 44.0113 62.0273 47.2097C58.5918 50.4039 54.2376 52 48.9606 52C43.4796 52 39.0389 50.4143 35.6427 47.2427ZM43.8015 29.568C42.4352 30.9886 41.752 32.8056 41.752 35.0191C41.752 37.2326 42.4057 39.0393 43.7151 40.4371C45.0226 41.8371 46.7502 42.535 48.8978 42.535C50.9591 42.535 52.6553 41.8247 53.9863 40.4041C55.3212 38.9835 55.9887 37.1892 55.9887 35.0191C55.9887 32.8056 55.3016 30.9886 53.9313 29.568C52.5591 28.1474 50.8806 27.4371 48.8978 27.4371C46.8719 27.4371 45.1718 28.1474 43.8015 29.568Z" fill="#EEBD00"/>
<path d="M72.4083 1.94091C73.6373 0.648348 75.1057 0 76.8136 0C78.5255 0 79.9959 0.648348 81.2268 1.94091C82.4557 3.23555 83.0721 4.78002 83.0721 6.57433C83.0721 8.37071 82.4557 9.91725 81.2268 11.216C79.9959 12.5106 78.5255 13.1569 76.8136 13.1569C75.1057 13.1569 73.6373 12.5106 72.4083 11.216C71.1775 9.91725 70.563 8.37071 70.563 6.57433C70.563 4.78002 71.1775 3.23555 72.4083 1.94091ZM71.3954 19.8551V52H81.9413V19.8551H71.3954Z" fill="#3C5060"/>
<path d="M86.4487 52V19.8552H96.9947V23.2414H97.1125C99.8491 20.3631 102.768 18.9219 105.868 18.9219C107.376 18.9219 108.872 19.1325 110.36 19.5496C111.852 19.9625 113.283 20.6109 114.655 21.4905C116.025 22.366 117.139 23.609 117.992 25.2154C118.844 26.8239 119.272 28.6925 119.272 30.8234V52H108.726V33.8298C108.726 32.1614 108.218 30.6995 107.203 29.4441C106.192 28.1887 104.873 27.561 103.245 27.561C101.659 27.561 100.218 28.2114 98.9265 29.5102C97.6386 30.8048 96.9947 32.244 96.9947 33.8298V52H86.4487Z" fill="#3C5060"/>
<path d="M141.119 27.0655C139.134 27.0655 137.428 27.8398 135.999 29.3863C134.57 30.9287 133.855 32.785 133.855 34.953C133.855 37.1665 134.57 39.0475 135.999 40.5941C137.428 42.1427 139.134 42.9149 141.119 42.9149C142.071 42.9149 142.974 42.791 143.828 42.5432C144.68 42.2913 145.306 42.0374 145.705 41.7834L146.246 41.4117L149.819 49.1176C149.541 49.3282 149.154 49.5884 148.657 49.9022C148.158 50.216 147.026 50.6435 145.257 51.1824C143.492 51.7275 141.598 52 139.572 52C135.084 52 131.142 50.3399 127.746 47.0197C124.348 43.6995 122.649 39.7227 122.649 35.0852C122.649 30.4063 124.348 26.3862 127.746 23.0267C131.142 19.6632 135.084 17.9803 139.572 17.9803C141.598 17.9803 143.463 18.2323 145.171 18.7319C146.877 19.2337 148.088 19.7354 148.806 20.2351L149.819 20.9867L146.246 28.5687C144.931 27.5672 143.223 27.0655 141.119 27.0655Z" fill="#3C5060"/>
<mask id="mask0_610_545" style="mask-type:luminance" maskUnits="userSpaceOnUse" x="161" y="27" width="16" height="17">
<path d="M168.881 27.6455C164.767 27.6455 161.434 31.1149 161.434 35.3938C161.434 39.6726 164.767 43.1399 168.881 43.1399C172.994 43.1399 176.327 39.6726 176.327 35.3938C176.327 31.1149 172.994 27.6455 168.881 27.6455Z" fill="white"/>
</mask>
<g mask="url(#mask0_610_545)">
<path d="M161.434 27.6455H176.327V43.1399H161.434V27.6455Z" fill="#EEBD00"/>
</g>
</svg>
